<?xml version="1.0" encoding="UTF-8"?>
<svg id="Layer_1" xmlns="http://www.w3.org/2000/svg" version="1.1" viewBox="0 0 970 970">
  <!-- Generator: Adobe Illustrator 30.3.0, SVG Export Plug-In . SVG Version: 2.1.3 Build 182)  -->
  <defs>
    <style>
      .st0 {
        fill: #d10;
      }
    </style>
  </defs>
  <path class="st0" d="M812.376,485.041l133.446-149.722-195.945-42.722,19.967-199.569-183.645,80.616L484.995.466l-101.134,173.158-183.614-80.658,19.921,199.571-195.968,42.677,133.423,149.753L24.179,634.68l195.946,42.729-19.959,199.555,183.636-80.608,101.204,173.176,101.132-173.149,183.62,80.649-19.921-199.567,195.965-42.678-133.427-149.745ZM825.019,569.514l-69.072-23.626-48.743-63.35,60.27,22.392,57.546,64.584ZM553.236,760.007l-44.858,76.802v-77.326l46.525-67.885-1.667,68.409ZM417.01,271.371l-76.122-27.069-42.251-57.047,80.112,35.191,38.262,48.925ZM591.305,222.466l80.07-35.149-42.255,56.982-76.075,27.053,38.261-48.886ZM701.89,302.555l-37.363,52.988,2.299-83.594,44.074-59.434-9.009,90.04ZM485.001,710.887l-66.517-97.056,66.517-90.257,66.516,90.257-66.516,97.056ZM353.892,415.323l-3.244-117.926,110.974,39.462v114.763l-107.73-36.299ZM508.379,336.86l110.972-39.462-3.244,117.926-107.729,36.299v-114.763ZM268.153,302.509l-8.982-89.981,44.004,59.414,2.298,83.541-37.319-52.973ZM339.322,459.753l107.85,36.34-66.469,90.192-113.088-33.335,71.707-93.196ZM415.064,691.55l46.559,67.934v77.368l-44.919-76.863-1.64-68.439ZM522.829,496.093l107.849-36.34,71.707,93.196-113.088,33.335-66.468-90.192ZM857.668,363.953l-83.433,93.609-98.604-36.633,59.078-83.783,122.958,26.808ZM485.006,93.155l63.324,108.359-63.322,80.906-63.282-80.918,63.281-108.348ZM112.353,363.869l122.968-26.779,59.053,83.823-98.602,36.585-83.419-93.629ZM202.521,504.866l60.315-22.379-48.778,63.396-69.134,23.604,57.598-64.62ZM155.177,615.392l73.629-25.138,80.997,23.877-65.451,20.707-89.174-19.445ZM267.19,676.653l99.989-31.634,2.551,106.452-115.075,50.513,12.535-125.33ZM600.213,751.498l2.595-106.471,99.963,31.666,12.512,125.346-115.07-50.541ZM725.621,634.885l-65.473-20.74,81.04-23.889,73.663,25.197-89.23,19.433Z"/>
</svg>